# xmcd CD database file
#
# Track frame offsets:
#	150
#	4300
#	14232
#	41995
#	58681
#	87173
#	101572
#	122535
#	153399
#	162970
#	181007
#	210966
#	231813
#	252151
#
# Disc length: 3610 seconds
#
# Revision: 0
# Processed by: cddbd v1.5.2PL0 Copyright (c) Steve Scherf et al.
# Submitted via: CDex 1.51
#
DISCID=b00e180e
DTITLE=Matthias Schriefl - Six, Alps and Jazz
DYEAR=2012
DGENRE=Jazz
TTITLE0=Langenwanger Intro
TTITLE1=S'Deandl vom Wintergrea
TTITLE2=Am Schnackar Bichl
TTITLE3=Andachtsjodler
TTITLE4=L‰ndlesgruaﬂ
TTITLE5=Steinegger's Allerlei
TTITLE6=Les Alpes vues de Paris
TTITLE7=S'isch mer alles oi Ding
TTITLE8=Langenwanger Reprise
TTITLE9=Bald ischs halb simmne
TTITLE10=Der Vorarlberger Problemb‰r
TTITLE11=Punzenjodler
TTITLE12=Luschtig, luschtig
TTITLE13=Schlofliadle
EXTD=YEAR: 2012
EXTT0=
EXTT1=
EXTT2=
EXTT3=
EXTT4=
EXTT5=
EXTT6=
EXTT7=
EXTT8=
EXTT9=
EXTT10=
EXTT11=
EXTT12=
EXTT13=
PLAYORDER=
